<?xml version="1.0" encoding="UTF-8"?>
<svg version="1.1" xmlns="http://www.w3.org/2000/svg" width="500" height="500">
<path d="M0 0 C165 0 330 0 500 0 C500 165 500 330 500 500 C335 500 170 500 0 500 C0 335 0 170 0 0 Z " fill="#FCFCFC" transform="translate(0,0)"/>
<path d="M0 0 C3.95025535 1.00586889 7.90739133 1.98028759 11.86669922 2.94970703 C32.50587583 8.02528517 32.50587583 8.02528517 41.85036564 10.66057301 C52.00088853 13.52250817 62.20355018 16.13748308 72.43701172 18.68408203 C74.2086825 19.12673133 75.98030804 19.56956171 77.75189209 20.01255798 C82.45639901 21.18827112 87.1616635 22.36092541 91.86706924 23.53303528 C95.77593926 24.50732286 99.68422175 25.48395589 103.5925169 26.46054649 C122.21393794 31.11296885 140.83969352 35.74674531 159.48547554 40.3006649 C161.8177356 40.87029782 164.14984443 41.44054605 166.48191833 42.01094055 C172.91586939 43.58402885 179.35037213 45.15454087 185.78867912 46.70971775 C188.95895172 47.47686302 192.12749108 48.25111554 195.29638672 49.02392578 C196.42332947 49.29373764 197.55027222 49.5635495 198.71136475 49.84153748 C200.24195526 50.21654137 200.24195526 50.21654137 201.8034668 50.59912109 C202.68609695 50.81256165 203.56872711 51.0260022 204.47810364 51.24591064 C206.71435547 51.94580078 206.71435547 51.94580078 209.71435547 53.94580078 C209.90185547 56.57080078 209.90185547 56.57080078 209.71435547 58.94580078 C203.74718603 61.766578 197.71960436 63.33579542 191.31201172 64.86376953 C189.87770813 65.21308533 189.87770813 65.21308533 188.41442871 65.56945801 C184.87018718 66.43075044 181.32336832 67.28140917 177.77685547 68.13330078 C169.83623047 70.05142578 161.89560547 71.96955078 153.71435547 73.94580078 C153.38435547 102.65580078 153.05435547 131.36580078 152.71435547 160.94580078 C153.70435547 161.27580078 154.69435547 161.60580078 155.71435547 161.94580078 C155.74323693 165.25828265 155.76111346 168.57073245 155.77685547 171.88330078 C155.78523438 172.82882812 155.79361328 173.77435547 155.80224609 174.74853516 C155.80708008 176.0972168 155.80708008 176.0972168 155.81201172 177.47314453 C155.81986694 178.72212524 155.81986694 178.72212524 155.82788086 179.99633789 C155.71435547 181.94580078 155.71435547 181.94580078 154.71435547 182.94580078 C152.5495475 183.04473018 150.38141762 183.07551179 148.21435547 183.07080078 C147.02841797 183.07337891 145.84248047 183.07595703 144.62060547 183.07861328 C141.71435547 182.94580078 141.71435547 182.94580078 140.71435547 181.94580078 C140.62766115 180.45708219 140.60732053 178.96435579 140.61669922 177.47314453 C140.61992187 176.57402344 140.62314453 175.67490234 140.62646484 174.74853516 C140.63484375 173.80300781 140.64322266 172.85748047 140.65185547 171.88330078 C140.65636719 170.93390625 140.66087891 169.98451172 140.66552734 169.00634766 C140.67735437 166.65277013 140.69383522 164.29931601 140.71435547 161.94580078 C142.03435547 161.61580078 143.35435547 161.28580078 144.71435547 160.94580078 C144.71435547 132.89580078 144.71435547 104.84580078 144.71435547 75.94580078 C136.13435547 78.25580078 127.55435547 80.56580078 118.71435547 82.94580078 C99.24627036 87.94580078 99.24627036 87.94580078 95.71435547 87.94580078 C95.71657608 88.54492783 95.71879669 89.14405487 95.72108459 89.76133728 C95.74313712 95.97377936 95.75826192 102.1862104 95.76928711 108.39868164 C95.7743288 110.71997529 95.78116198 113.04126575 95.78979492 115.36254883 C95.80186771 118.69108873 95.80758526 122.0195868 95.81201172 125.34814453 C95.817173 126.39292465 95.82233429 127.43770477 95.82765198 128.5141449 C95.82776527 129.95552574 95.82776527 129.95552574 95.82788086 131.42602539 C95.83010147 132.27651962 95.83232208 133.12701385 95.83460999 134.00328064 C95.71435547 135.94580078 95.71435547 135.94580078 94.71435547 136.94580078 C90.03018365 137.47809303 86.56014358 136.66818517 82.10107422 135.17626953 C31.96021958 119.41242114 -25.38952174 116.57704972 -77.28564453 122.94580078 C-78.91083008 123.13118408 -78.91083008 123.13118408 -80.56884766 123.3203125 C-95.17561945 125.00996291 -109.53846375 127.44551299 -123.91064453 130.50830078 C-124.60383789 130.65600922 -125.29703125 130.80371765 -126.01123047 130.9559021 C-133.38843004 132.54042131 -140.7011248 134.23983205 -147.93164062 136.41040039 C-150.49883081 136.99428839 -152.66232486 137.17778941 -155.28564453 136.94580078 C-157.28564453 134.94580078 -157.28564453 134.94580078 -157.51269531 131.68945312 C-157.51237835 130.30350783 -157.50106212 128.91753777 -157.48095703 127.53173828 C-157.47812714 126.80209869 -157.47529724 126.07245911 -157.47238159 125.32070923 C-157.46117455 122.9872405 -157.43606964 120.65415375 -157.41064453 118.32080078 C-157.40061538 116.74007715 -157.39148942 115.15934752 -157.38330078 113.57861328 C-157.36123358 109.70086164 -157.32670068 105.823396 -157.28564453 101.94580078 C-148.53324194 98.0544901 -139.67840727 95.06522036 -130.47314453 92.44580078 C-129.79955902 92.25226013 -129.12597351 92.05871948 -128.43197632 91.85931396 C-109.62505991 86.46896771 -90.70038513 82.38141357 -71.28564453 79.94580078 C-70.24746582 79.80899902 -69.20928711 79.67219727 -68.13964844 79.53125 C-34.92894969 75.25765508 -1.59315715 76.3920437 31.71435547 78.94580078 C28.34043582 78.47930427 24.96503386 78.02438031 21.58935547 77.57080078 C20.67669922 77.44447266 19.76404297 77.31814453 18.82373047 77.18798828 C15.4572971 76.7391305 12.08824218 76.33503798 8.71435547 75.94580078 C7.96449371 75.85861786 7.21463196 75.77143494 6.44204712 75.68161011 C-8.29185317 74.01874628 -22.89806064 73.66297741 -37.7175293 73.73999023 C-41.34772801 73.75829868 -44.97766987 73.76049848 -48.60791016 73.76025391 C-59.37417156 73.77606407 -70.12723662 73.88620975 -80.88330078 74.37939453 C-81.69050064 74.41579544 -82.4977005 74.45219635 -83.32936096 74.48970032 C-102.58413859 75.49617228 -121.5143073 79.7156738 -140.16064453 84.41455078 C-141.10617188 84.64996582 -142.05169922 84.88538086 -143.02587891 85.12792969 C-144.81156295 85.57624633 -146.59440355 86.0361138 -148.37353516 86.50976562 C-149.17984375 86.7129541 -149.98615234 86.91614258 -150.81689453 87.12548828 C-151.51363281 87.30837402 -152.21037109 87.49125977 -152.92822266 87.6796875 C-159.44381609 88.41518842 -166.27908591 86.06000267 -172.54785156 84.49316406 C-173.55521362 84.24424408 -174.56257568 83.9953241 -175.60046387 83.73886108 C-178.91575 82.9184091 -182.22967922 82.09263479 -185.54345703 81.26611328 C-187.85316251 80.69173291 -190.16288567 80.11742365 -192.47262573 79.54318237 C-197.30661839 78.34029565 -202.13984563 77.13438426 -206.97265625 75.92675781 C-213.16574418 74.3798094 -219.36147307 72.8437323 -225.55792427 71.3103199 C-230.32566238 70.12859539 -235.09152678 68.93945068 -239.85689926 67.74822617 C-242.14078085 67.17860259 -244.42533848 66.61168251 -246.7105751 66.04751968 C-249.90312818 65.25853725 -253.09291438 64.45919396 -256.28222656 63.65722656 C-257.69748123 63.31108307 -257.69748123 63.31108307 -259.1413269 62.95794678 C-263.64985067 61.81277028 -267.43349273 60.67967291 -271.28564453 57.94580078 C-270.98428345 56.04104614 -270.98428345 56.04104614 -270.28564453 53.94580078 C-263.3287631 50.61004614 -255.60256342 49.15625162 -248.13720703 47.32861328 C-246.75674534 46.98664373 -245.37640707 46.64417563 -243.9961853 46.30123901 C-240.37096127 45.40155201 -236.74446634 44.50711029 -233.11755371 43.61425781 C-227.35091997 42.1942095 -221.58582199 40.76798694 -215.82157516 39.33828354 C-213.84082571 38.84807051 -211.85927326 38.36122459 -209.87759399 37.87478638 C-203.20484613 36.22397343 -196.57390987 34.48405352 -189.95922852 32.61694336 C-178.04865487 29.26565529 -166.03657196 26.31636638 -154.03173828 23.32470703 C-151.51656352 22.69621241 -149.00143276 22.06754166 -146.48634338 21.43870544 C-141.23808486 20.12702948 -135.989454 18.81686023 -130.74047852 17.50805664 C-124.74614676 16.01338901 -118.75242579 14.51629333 -112.75905746 13.01776749 C-106.90959003 11.55524574 -101.05977548 10.09411835 -95.209795 8.63364983 C-92.76027738 8.02205388 -90.31082592 7.4101929 -87.86144829 6.79803658 C-81.10882061 5.11096575 -74.35444328 3.43126647 -67.59696579 1.76372147 C-65.33680443 1.205445 -63.07711129 0.64527042 -60.81782913 0.0834465 C-57.41809953 -0.76059039 -54.01636771 -1.59605687 -50.61401367 -2.42944336 C-49.59694808 -2.68335814 -48.57988249 -2.93727293 -47.53199673 -3.1988821 C-30.64805149 -7.30201072 -16.5959804 -4.23790624 0 0 Z " fill="#245889" transform="translate(281.28564453125,132.05419921875)"/>
<path d="M0 0 C25.17364017 0 25.17364017 0 33.17578125 6.8671875 C38.27407055 12.2926962 41.08928272 17.81427689 41.5 25.3125 C41.26800599 32.35931797 38.84045182 37.84460269 34.1328125 43.07421875 C23.6330626 52.81815008 15.39723104 51 0 51 C0 34.17 0 17.34 0 0 Z " fill="#2F608F" transform="translate(272,282)"/>
<path d="M0 0 C2.97 0 5.94 0 9 0 C9.0093457 1.09465576 9.01869141 2.18931152 9.02832031 3.31713867 C9.06827937 7.38965111 9.13405402 11.4614128 9.20751953 15.53344727 C9.23569499 17.29376561 9.25692659 19.05420967 9.27099609 20.81469727 C9.29247373 23.34977411 9.33914592 25.8833451 9.390625 28.41796875 C9.39185364 29.20149216 9.39308228 29.98501556 9.39434814 30.7922821 C9.52660062 35.75806539 10.28262639 38.39091207 14 42 C17.07194908 43.53597454 19.60244293 43.2265038 23 43 C27.1331135 41.46308787 27.1331135 41.46308787 30.14208984 38.39355469 C31.37467276 34.9546694 31.35806393 31.5644712 31.4140625 27.953125 C31.43342865 27.18192322 31.4527948 26.41072144 31.4727478 25.6161499 C31.53237077 23.16087795 31.57885914 20.70555867 31.625 18.25 C31.66319575 16.58201118 31.70224841 14.91404174 31.7421875 13.24609375 C31.83805791 9.16422057 31.92215235 5.08225507 32 1 C34.64 1 37.28 1 40 1 C40.07438973 6.30188966 40.12871511 11.60347268 40.16479492 16.90576172 C40.1798424 18.70789892 40.2002853 20.50999973 40.22631836 22.31201172 C40.26288021 24.90862021 40.27976681 27.50474275 40.29296875 30.1015625 C40.30845261 30.9017984 40.32393646 31.7020343 40.33988953 32.52651978 C40.34135323 37.43799152 39.68551187 40.7282377 37 45 C32.36395624 49.50726477 27.05592123 52.12912174 20.5625 52.375 C15.12133526 52.14365796 10.33594571 51.14430493 6.23828125 47.3828125 C4.69538149 45.6419135 3.30167235 43.92763581 2 42 C1.4730957 41.22305786 1.4730957 41.22305786 0.93554688 40.43041992 C-0.46928256 36.78086954 -0.24438782 33.15041255 -0.1953125 29.296875 C-0.1924826 28.45908508 -0.18965271 27.62129517 -0.18673706 26.75811768 C-0.17556349 24.08859837 -0.15046421 21.4194175 -0.125 18.75 C-0.11496654 16.93750485 -0.10584133 15.12500444 -0.09765625 13.3125 C-0.0756334 8.87487007 -0.04112304 4.43749237 0 0 Z " fill="#2D5F8E" transform="translate(221,282)"/>
<path d="M0 0 C3.64174394 1.73448023 5.34866541 2.76909186 7.640625 6.20703125 C5.660625 7.85703125 3.680625 9.50703125 1.640625 11.20703125 C1.16625 10.71203125 0.691875 10.21703125 0.203125 9.70703125 C-3.51482448 7.53067058 -7.13446824 7.76140214 -11.359375 8.20703125 C-12.64294208 9.30691115 -12.64294208 9.30691115 -12.921875 11.95703125 C-12.70646643 15.15422135 -12.70646643 15.15422135 -10.92578125 16.5390625 C-7.96802236 18.41369841 -4.90199419 19.94867973 -1.7421875 21.453125 C7.63308925 25.91820488 7.63308925 25.91820488 9.640625 30.20703125 C10.32755959 34.9422114 10.72232464 39.74688251 8.7578125 44.21484375 C5.83704942 48.06406132 2.15899818 49.82854452 -2.359375 51.20703125 C-8.75827664 51.91802032 -12.99240118 50.75449795 -18.359375 47.20703125 C-21.359375 44.64453125 -21.359375 44.64453125 -23.359375 42.20703125 C-23.359375 41.21703125 -23.359375 40.22703125 -23.359375 39.20703125 C-21.046875 37.45703125 -21.046875 37.45703125 -18.359375 36.20703125 C-14.99794082 37.32750931 -13.78408666 38.70410308 -11.359375 41.20703125 C-8.36939675 42.70202038 -5.65894725 42.32280571 -2.359375 42.20703125 C-0.874375 41.71203125 -0.874375 41.71203125 0.640625 41.20703125 C0.93269382 38.2863431 1.14949803 36.0523428 0.640625 33.20703125 C-3.05857758 29.79238272 -7.59562755 28.23697737 -12.171875 26.28125 C-15.91444659 24.44338002 -19.45872571 22.00832984 -21.359375 18.20703125 C-21.85830901 13.84492246 -22.36083431 9.24600241 -20.3828125 5.21875 C-15.1167021 -1.29119629 -7.79985132 -2.62147321 0 0 Z " fill="#295C8C" transform="translate(168.359375,282.79296875)"/>
<path d="M0 0 C13.33333333 0 13.33333333 0 19 5 C22.72092544 8.81394857 23.27795418 11.83709733 23.4375 17 C23.22770029 22.47509563 22.57629146 26.42370854 18.5703125 30.4296875 C12.18233017 36.05492567 9.38240143 35 0 35 C0 23.45 0 11.9 0 0 Z " fill="#FBFBFB" transform="translate(281,290)"/>
<path d="M0 0 C3.47629131 -0.55772141 6.54197864 -0.74404942 10 0 C12.82555774 2.56841861 14.39366782 5.62845839 16.125 9 C16.60453125 9.85851562 17.0840625 10.71703125 17.578125 11.6015625 C18.75402086 13.71817506 19.89136894 15.84761474 21 18 C23.97586892 14.38883322 26.62029809 10.66100929 29.1875 6.75 C32.90391459 1.09608541 32.90391459 1.09608541 34 0 C35.51928038 -0.07179964 37.04167482 -0.08392007 38.5625 -0.0625 C39.38878906 -0.05347656 40.21507812 -0.04445313 41.06640625 -0.03515625 C41.70449219 -0.02355469 42.34257812 -0.01195312 43 0 C41.71216458 3.60798647 40.20129714 6.24817122 37.77734375 9.203125 C27.18148662 22.92001865 24.85743536 33.80803951 26 51 C23.03 51 20.06 51 17 51 C17.05349609 50.36835938 17.10699219 49.73671875 17.16210938 49.0859375 C18.43882721 30.03126703 13.2128196 18.83861223 1.45288086 4.03344727 C0 2 0 2 0 0 Z " fill="#2F608F" transform="translate(316,282)"/>
<path d="M0 0 C11.55 0 23.1 0 35 0 C35 2.64 35 5.28 35 8 C30.71 8 26.42 8 22 8 C22 22.19 22 36.38 22 51 C19.03 51 16.06 51 13 51 C13 36.81 13 22.62 13 8 C8.71 8 4.42 8 0 8 C0 5.36 0 2.72 0 0 Z " fill="#336391" transform="translate(181,282)"/>
<path d="M0 0 C4.95088006 1.23772001 6.13413435 3.51941123 8.75 7.5625 C9.16121094 8.17802734 9.57242188 8.79355469 9.99609375 9.42773438 C11.00763511 10.94504641 12.00519789 12.47166086 13 14 C13.33 9.38 13.66 4.76 14 0 C14.99 0 15.98 0 17 0 C17 6.93 17 13.86 17 21 C12.04911994 19.76227999 10.86586565 17.48058877 8.25 13.4375 C7.83878906 12.82197266 7.42757812 12.20644531 7.00390625 11.57226562 C5.99236489 10.05495359 4.99480211 8.52833914 4 7 C3.67 11.62 3.34 16.24 3 21 C2.01 21 1.02 21 0 21 C0 14.07 0 7.14 0 0 Z " fill="#356593" transform="translate(221,346)"/>
<path d="M0 0 C9 0 9 0 11.5625 1.0625 C13.79083695 4.06591067 13.45264211 6.37886313 13 10 C11.9375 11.9375 11.9375 11.9375 10 13 C6.3125 13.1875 6.3125 13.1875 3 13 C3 15.64 3 18.28 3 21 C2.01 21 1.02 21 0 21 C0 14.07 0 7.14 0 0 Z " fill="#3B6996" transform="translate(306,346)"/>
<path d="M0 0 C1.87988281 0.25219727 1.87988281 0.25219727 4 1 C5.09667969 2.73413086 5.09667969 2.73413086 5.921875 4.96484375 C6.22480469 5.76470703 6.52773438 6.56457031 6.83984375 7.38867188 C7.14019531 8.22978516 7.44054687 9.07089844 7.75 9.9375 C8.22373047 11.19336914 8.22373047 11.19336914 8.70703125 12.47460938 C11 18.6437872 11 18.6437872 11 21 C10.01 21 9.02 21 8 21 C7.34 19.02 6.68 17.04 6 15 C3.03 15 0.06 15 -3 15 C-3.33 16.98 -3.66 18.96 -4 21 C-4.99 21 -5.98 21 -7 21 C-6.38169051 15.97525707 -4.87023224 11.75279506 -2.9375 7.125 C-2.65583984 6.43664062 -2.37417969 5.74828125 -2.08398438 5.0390625 C-1.39484734 3.35710091 -0.69819202 1.67822303 0 0 Z " fill="#376693" transform="translate(270,346)"/>
<path d="M0 0 C1.21816406 0.03480469 1.21816406 0.03480469 2.4609375 0.0703125 C3.68683594 0.09738281 3.68683594 0.09738281 4.9375 0.125 C5.87722656 0.15980469 5.87722656 0.15980469 6.8359375 0.1953125 C7.1659375 1.1853125 7.4959375 2.1753125 7.8359375 3.1953125 C4.8659375 3.1953125 1.8959375 3.1953125 -1.1640625 3.1953125 C-0.51334322 6.12354925 0.18528604 7.77969228 2.75 9.41796875 C4.75724678 10.40740665 6.7701432 11.33536557 8.8359375 12.1953125 C9.0234375 15.5703125 9.0234375 15.5703125 8.8359375 19.1953125 C5.63213733 21.33117928 4.81653783 21.42663425 1.1484375 21.3203125 C0.34019531 21.30226563 -0.46804687 21.28421875 -1.30078125 21.265625 C-1.91566406 21.24242187 -2.53054687 21.21921875 -3.1640625 21.1953125 C-3.4940625 20.2053125 -3.8240625 19.2153125 -4.1640625 18.1953125 C-1.1940625 18.1953125 1.7759375 18.1953125 4.8359375 18.1953125 C4.80500577 15.77945676 4.80500577 15.77945676 3.8359375 13.1953125 C0.935885 11.45360952 0.935885 11.45360952 -2.1640625 10.1953125 C-4.1640625 8.1953125 -4.1640625 8.1953125 -4.4140625 5.1953125 C-4.1227272 1.6992889 -3.65676751 0.33003317 0 0 Z " fill="#396794" transform="translate(186.1640625,345.8046875)"/>
<path d="M0 0 C2.64 0 5.28 0 8 0 C8 0.33 8 0.66 8 1 C6.35 1 4.7 1 3 1 C3 3.97 3 6.94 3 10 C4.65 10 6.3 10 8 10 C8 10.66 8 11.32 8 12 C6.35 12 4.7 12 3 12 C3 14.64 3 17.28 3 20 C2.01 20 1.02 20 0 20 C0 13.4 0 6.8 0 0 Z " fill="#356492" transform="translate(306,347)"/>
<path d="M0 0 C1.99954746 -0.04254356 4.00041636 -0.04080783 6 0 C7 1 7 1 7.1875 3.4375 C7 6 7 6 5 8 C2.375 8.125 2.375 8.125 0 8 C0 5.36 0 2.72 0 0 Z " fill="#F6F7F9" transform="translate(309,349)"/>
<path d="M0 0 C0.33 1.32 0.66 2.64 1 4 C3.97 4.495 3.97 4.495 7 5 C6.67 5.66 6.34 6.32 6 7 C3.69 7 1.38 7 -1 7 C-1.33 8.98 -1.66 10.96 -2 13 C-2.99 13 -3.98 13 -5 13 C-4.44516583 8.33939297 -3.45003386 3.45003386 0 0 Z " fill="#316190" transform="translate(268,354)"/>
<path d="M0 0 C0.66 0.33 1.32 0.66 2 1 C2.73075648 3.3140622 3.40138258 5.64828869 4 8 C1.69 8 -0.62 8 -3 8 C-2.01 5.36 -1.02 2.72 0 0 Z " fill="#E5EBF0" transform="translate(271,351)"/>
<path d="M0 0 C2.31 0 4.62 0 7 0 C7.33 0.99 7.66 1.98 8 3 C4.7 3.33 1.4 3.66 -2 4 C-1.34 2.68 -0.68 1.36 0 0 Z " fill="#47729C" transform="translate(186,346)"/>
<path d="M0 0 C2.97 0.33 5.94 0.66 9 1 C9 1.66 9 2.32 9 3 C6.36 3 3.72 3 1 3 C0.67 2.01 0.34 1.02 0 0 Z " fill="#316290" transform="translate(182,364)"/>
</svg>
